<svg width="513" height="172" viewBox="0 0 513 172" fill="white" xmlns="http://www.w3.org/2000/svg">
<rect x="1.5" y="1.5" width="509.028" height="169" rx="26.5" stroke="black" stroke-width="3"/>
<path d="M102.14 101.253C113.656 94.8161 122.462 89.9121 123.215 89.529C125.624 88.2264 128.108 84.7782 123.215 82.0963C121.634 81.2535 113.129 76.5027 102.14 70.3726L87.0107 85.851L102.14 101.253Z" fill="#FFD400"/>
<path d="M87.0108 85.851L38.6882 135.428C39.8173 135.581 41.0968 135.274 42.6022 134.431C45.7635 132.669 79.3334 113.973 102.14 101.253L87.0108 85.851Z" fill="#FF3333"/>
<path d="M87.0108 85.851L102.14 70.3726C102.14 70.3726 45.9893 39.1861 42.6022 37.3471C41.3226 36.5808 39.8925 36.351 38.6129 36.5808L87.0108 85.851Z" fill="#48FF48"/>
<path d="M87.0108 85.851L38.6129 36.5808C36.6559 37.0406 35 38.803 35 42.4044C35 48.1513 35 124.777 35 129.604C35 132.899 36.2796 135.274 38.6882 135.504L87.0108 85.851Z" fill="#3BCCFF"/>
<path d="M163.723 59.3627C161.498 59.3627 159.6 58.9758 158.028 58.202C156.481 57.4282 155.272 56.3159 154.401 54.8651C153.555 53.3901 153.096 51.637 153.023 49.6058C152.999 48.566 152.987 47.4537 152.987 46.2688C152.987 45.0598 152.999 43.9233 153.023 42.8593C153.096 40.8523 153.555 39.1355 154.401 37.7088C155.272 36.2822 156.493 35.1819 158.065 34.4081C159.661 33.6344 161.547 33.2475 163.723 33.2475C165.488 33.2475 167.036 33.4893 168.366 33.9729C169.696 34.4323 170.796 35.0368 171.666 35.7864C172.561 36.5119 173.226 37.2977 173.661 38.1441C174.121 38.9904 174.363 39.7763 174.387 40.5017C174.411 40.7193 174.35 40.9007 174.205 41.0458C174.06 41.1909 173.867 41.2634 173.625 41.2634H169.889C169.647 41.2634 169.466 41.215 169.345 41.1183C169.224 41.0216 169.115 40.8765 169.019 40.6831C168.825 40.1753 168.523 39.6796 168.112 39.1959C167.701 38.6881 167.145 38.265 166.443 37.9264C165.742 37.5879 164.835 37.4187 163.723 37.4187C162.079 37.4187 160.761 37.8539 159.769 38.7244C158.802 39.5949 158.282 41.0337 158.21 43.0407C158.137 45.1444 158.137 47.2723 158.21 49.4244C158.282 51.4798 158.814 52.9548 159.806 53.8495C160.821 54.7442 162.151 55.1915 163.796 55.1915C164.884 55.1915 165.851 54.9981 166.697 54.6112C167.568 54.2243 168.245 53.6198 168.728 52.7976C169.236 51.9755 169.49 50.9236 169.49 49.642V48.5176H165.065C164.823 48.5176 164.618 48.433 164.448 48.2637C164.279 48.0945 164.195 47.8768 164.195 47.6109V45.6885C164.195 45.4225 164.279 45.2049 164.448 45.0356C164.618 44.8663 164.823 44.7817 165.065 44.7817H173.734C174 44.7817 174.205 44.8663 174.35 45.0356C174.52 45.2049 174.604 45.4225 174.604 45.6885V49.497C174.604 51.5281 174.157 53.2812 173.262 54.7563C172.392 56.2313 171.134 57.3678 169.49 58.1658C167.87 58.9637 165.948 59.3627 163.723 59.3627ZM186.944 59.3627C184.26 59.3627 182.132 58.5889 180.56 57.0414C178.988 55.4938 178.142 53.2933 178.021 50.44C177.997 50.1982 177.985 49.8959 177.985 49.5332C177.985 49.1463 177.997 48.8441 178.021 48.6264C178.118 46.8129 178.529 45.2411 179.254 43.9112C180.004 42.5812 181.031 41.5657 182.337 40.8644C183.643 40.139 185.178 39.7763 186.944 39.7763C188.902 39.7763 190.547 40.1874 191.877 41.0095C193.206 41.8075 194.21 42.9319 194.887 44.3827C195.564 45.8094 195.903 47.4658 195.903 49.3519V50.1136C195.903 50.3554 195.818 50.5609 195.649 50.7302C195.479 50.8994 195.262 50.9841 194.996 50.9841H182.954C182.954 50.9841 182.954 51.0203 182.954 51.0929C182.954 51.1654 182.954 51.2259 182.954 51.2742C182.978 52.1206 183.135 52.9064 183.425 53.6319C183.74 54.3331 184.187 54.9014 184.767 55.3366C185.372 55.7719 186.085 55.9895 186.907 55.9895C187.584 55.9895 188.153 55.8928 188.612 55.6993C189.072 55.4817 189.446 55.2399 189.737 54.9739C190.027 54.7079 190.232 54.4903 190.353 54.321C190.571 54.0308 190.74 53.8616 190.861 53.8132C191.006 53.7407 191.212 53.7044 191.478 53.7044H194.597C194.839 53.7044 195.032 53.777 195.177 53.922C195.346 54.0671 195.419 54.2485 195.395 54.4661C195.371 54.853 195.165 55.3245 194.778 55.8807C194.415 56.4368 193.884 56.9809 193.182 57.5129C192.481 58.0449 191.598 58.4922 190.534 58.8549C189.495 59.1934 188.298 59.3627 186.944 59.3627ZM182.954 47.9373H190.97V47.8285C190.97 46.8854 190.813 46.0633 190.498 45.362C190.184 44.6608 189.724 44.1046 189.12 43.6936C188.515 43.2825 187.79 43.077 186.944 43.077C186.097 43.077 185.372 43.2825 184.767 43.6936C184.163 44.1046 183.703 44.6608 183.389 45.362C183.099 46.0633 182.954 46.8854 182.954 47.8285V47.9373ZM208.206 59C206.755 59 205.534 58.7461 204.542 58.2383C203.551 57.7305 202.813 56.9809 202.33 55.9895C201.846 54.9739 201.604 53.7165 201.604 52.2173V43.9837H198.739C198.497 43.9837 198.292 43.8991 198.122 43.7298C197.953 43.5606 197.868 43.355 197.868 43.1132V41.0095C197.868 40.7677 197.953 40.5622 198.122 40.3929C198.292 40.2236 198.497 40.139 198.739 40.139H201.604V34.118C201.604 33.8762 201.677 33.6706 201.822 33.5014C201.991 33.3321 202.209 33.2475 202.475 33.2475H205.413C205.655 33.2475 205.86 33.3321 206.029 33.5014C206.199 33.6706 206.283 33.8762 206.283 34.118V40.139H210.817C211.059 40.139 211.264 40.2236 211.434 40.3929C211.603 40.5622 211.688 40.7677 211.688 41.0095V43.1132C211.688 43.355 211.603 43.5606 211.434 43.7298C211.264 43.8991 211.059 43.9837 210.817 43.9837H206.283V51.8546C206.283 52.846 206.453 53.6198 206.791 54.1759C207.154 54.7321 207.77 55.0102 208.641 55.0102H211.144C211.385 55.0102 211.591 55.0948 211.76 55.2641C211.929 55.4333 212.014 55.6389 212.014 55.8807V58.1295C212.014 58.3713 211.929 58.5768 211.76 58.7461C211.591 58.9154 211.385 59 211.144 59H208.206ZM224.391 59C224.149 59 223.943 58.9154 223.774 58.7461C223.605 58.5768 223.52 58.3713 223.52 58.1295V41.0095C223.52 40.7677 223.605 40.5622 223.774 40.3929C223.943 40.2236 224.149 40.139 224.391 40.139H227.401C227.667 40.139 227.873 40.2236 228.018 40.3929C228.187 40.5622 228.272 40.7677 228.272 41.0095V58.1295C228.272 58.3713 228.187 58.5768 228.018 58.7461C227.873 58.9154 227.667 59 227.401 59H224.391ZM224.246 37.0197C223.98 37.0197 223.762 36.9471 223.593 36.802C223.448 36.6328 223.375 36.4151 223.375 36.1492V33.5376C223.375 33.2958 223.448 33.0903 223.593 32.921C223.762 32.7518 223.98 32.6671 224.246 32.6671H227.546C227.812 32.6671 228.03 32.7518 228.199 32.921C228.369 33.0903 228.453 33.2958 228.453 33.5376V36.1492C228.453 36.4151 228.369 36.6328 228.199 36.802C228.03 36.9471 227.812 37.0197 227.546 37.0197H224.246ZM241.608 59C240.157 59 238.936 58.7461 237.944 58.2383C236.953 57.7305 236.215 56.9809 235.732 55.9895C235.248 54.9739 235.006 53.7165 235.006 52.2173V43.9837H232.141C231.899 43.9837 231.694 43.8991 231.524 43.7298C231.355 43.5606 231.27 43.355 231.27 43.1132V41.0095C231.27 40.7677 231.355 40.5622 231.524 40.3929C231.694 40.2236 231.899 40.139 232.141 40.139H235.006V34.118C235.006 33.8762 235.079 33.6706 235.224 33.5014C235.393 33.3321 235.611 33.2475 235.877 33.2475H238.815C239.057 33.2475 239.262 33.3321 239.431 33.5014C239.601 33.6706 239.685 33.8762 239.685 34.118V40.139H244.219C244.461 40.139 244.667 40.2236 244.836 40.3929C245.005 40.5622 245.09 40.7677 245.09 41.0095V43.1132C245.09 43.355 245.005 43.5606 244.836 43.7298C244.667 43.8991 244.461 43.9837 244.219 43.9837H239.685V51.8546C239.685 52.846 239.855 53.6198 240.193 54.1759C240.556 54.7321 241.172 55.0102 242.043 55.0102H244.546C244.787 55.0102 244.993 55.0948 245.162 55.2641C245.332 55.4333 245.416 55.6389 245.416 55.8807V58.1295C245.416 58.3713 245.332 58.5768 245.162 58.7461C244.993 58.9154 244.787 59 244.546 59H241.608ZM265.265 59.3627C263.33 59.3627 261.698 59.0242 260.368 58.3471C259.062 57.6701 258.059 56.7149 257.358 55.4817C256.681 54.2485 256.294 52.8097 256.197 51.1654C256.173 50.7302 256.161 50.1982 256.161 49.5695C256.161 48.9408 256.173 48.4088 256.197 47.9736C256.294 46.3051 256.693 44.8663 257.394 43.6573C258.119 42.4241 259.135 41.4689 260.441 40.7919C261.771 40.1148 263.379 39.7763 265.265 39.7763C267.151 39.7763 268.747 40.1148 270.053 40.7919C271.382 41.4689 272.398 42.4241 273.099 43.6573C273.825 44.8663 274.236 46.3051 274.333 47.9736C274.357 48.4088 274.369 48.9408 274.369 49.5695C274.369 50.1982 274.357 50.7302 274.333 51.1654C274.236 52.8097 273.837 54.2485 273.136 55.4817C272.458 56.7149 271.455 57.6701 270.125 58.3471C268.819 59.0242 267.199 59.3627 265.265 59.3627ZM265.265 55.7719C266.546 55.7719 267.538 55.3729 268.239 54.5749C268.94 53.7528 269.327 52.5558 269.4 50.9841C269.424 50.6214 269.436 50.1498 269.436 49.5695C269.436 48.9892 269.424 48.5176 269.4 48.1549C269.327 46.6073 268.94 45.4225 268.239 44.6003C267.538 43.7782 266.546 43.3671 265.265 43.3671C263.983 43.3671 262.992 43.7782 262.29 44.6003C261.589 45.4225 261.202 46.6073 261.13 48.1549C261.106 48.5176 261.094 48.9892 261.094 49.5695C261.094 50.1498 261.106 50.6214 261.13 50.9841C261.202 52.5558 261.589 53.7528 262.29 54.5749C262.992 55.3729 263.983 55.7719 265.265 55.7719ZM279.258 59C279.016 59 278.811 58.9154 278.641 58.7461C278.472 58.5768 278.388 58.3713 278.388 58.1295V41.0095C278.388 40.7677 278.472 40.5622 278.641 40.3929C278.811 40.2236 279.016 40.139 279.258 40.139H282.232C282.474 40.139 282.68 40.2236 282.849 40.3929C283.018 40.5622 283.103 40.7677 283.103 41.0095V42.4966C283.731 41.7228 284.529 41.082 285.497 40.5742C286.488 40.0423 287.709 39.7763 289.16 39.7763C290.635 39.7763 291.917 40.1148 293.005 40.7919C294.093 41.4448 294.927 42.3757 295.508 43.5848C296.112 44.7938 296.414 46.2446 296.414 47.9373V58.1295C296.414 58.3713 296.33 58.5768 296.16 58.7461C295.991 58.9154 295.786 59 295.544 59H292.352C292.11 59 291.905 58.9154 291.735 58.7461C291.566 58.5768 291.481 58.3713 291.481 58.1295V48.1549C291.481 46.7524 291.131 45.6522 290.43 44.8542C289.752 44.0563 288.761 43.6573 287.455 43.6573C286.198 43.6573 285.194 44.0563 284.445 44.8542C283.695 45.6522 283.32 46.7524 283.32 48.1549V58.1295C283.32 58.3713 283.236 58.5768 283.066 58.7461C282.897 58.9154 282.692 59 282.45 59H279.258Z" fill="black"/>
<path d="M158.869 128C158.357 128 157.921 127.821 157.562 127.462C157.204 127.103 157.024 126.668 157.024 126.155V76.1099C157.024 75.5462 157.204 75.0849 157.562 74.7262C157.921 74.3674 158.357 74.1881 158.869 74.1881H179.472C183.469 74.1881 186.954 74.8287 189.926 76.1099C192.899 77.3399 195.205 79.2361 196.845 81.7986C198.485 84.3098 199.305 87.4617 199.305 91.2541C199.305 95.0978 198.485 98.2753 196.845 100.787C195.205 103.247 192.899 105.091 189.926 106.321C186.954 107.551 183.469 108.166 179.472 108.166H168.017V126.155C168.017 126.668 167.838 127.103 167.479 127.462C167.172 127.821 166.736 128 166.172 128H158.869ZM167.864 99.6334H179.087C182.06 99.6334 184.34 98.9416 185.929 97.5578C187.518 96.1228 188.312 94.0216 188.312 91.2541C188.312 88.6917 187.569 86.6417 186.083 85.1042C184.596 83.5155 182.265 82.7211 179.087 82.7211H167.864V99.6334ZM203.316 128C202.804 128 202.368 127.821 202.009 127.462C201.651 127.103 201.471 126.668 201.471 126.155V75.2643C201.471 74.7518 201.651 74.3162 202.009 73.9574C202.368 73.5987 202.804 73.4193 203.316 73.4193H209.697C210.209 73.4193 210.645 73.5987 211.004 73.9574C211.363 74.3162 211.542 74.7518 211.542 75.2643V126.155C211.542 126.668 211.363 127.103 211.004 127.462C210.645 127.821 210.209 128 209.697 128H203.316ZM227.966 128.769C225.301 128.769 222.892 128.256 220.74 127.231C218.587 126.155 216.87 124.746 215.589 123.003C214.359 121.209 213.744 119.211 213.744 117.007C213.744 113.42 215.179 110.575 218.049 108.474C220.97 106.321 224.814 104.886 229.58 104.169L240.112 102.632V101.017C240.112 98.8647 239.574 97.1991 238.498 96.0203C237.421 94.8416 235.576 94.2522 232.963 94.2522C231.118 94.2522 229.606 94.6366 228.427 95.4053C227.3 96.1228 226.454 97.0966 225.89 98.3266C225.48 98.9928 224.891 99.3259 224.122 99.3259H218.049C217.485 99.3259 217.05 99.1722 216.742 98.8647C216.486 98.5572 216.358 98.1472 216.358 97.6347C216.409 96.8147 216.742 95.8153 217.357 94.6366C217.972 93.4579 218.946 92.3304 220.279 91.2541C221.611 90.1267 223.328 89.1785 225.429 88.4098C227.53 87.6411 230.067 87.2567 233.04 87.2567C236.268 87.2567 238.985 87.6667 241.188 88.4867C243.443 89.2554 245.237 90.306 246.569 91.6385C247.902 92.971 248.876 94.5341 249.491 96.3278C250.106 98.1216 250.413 100.018 250.413 102.017V126.155C250.413 126.668 250.234 127.103 249.875 127.462C249.516 127.821 249.081 128 248.568 128H242.341C241.778 128 241.316 127.821 240.958 127.462C240.65 127.103 240.496 126.668 240.496 126.155V123.157C239.83 124.131 238.933 125.053 237.806 125.924C236.678 126.744 235.295 127.436 233.655 128C232.066 128.512 230.17 128.769 227.966 128.769ZM230.58 121.466C232.373 121.466 233.988 121.081 235.423 120.313C236.909 119.544 238.062 118.365 238.882 116.776C239.753 115.136 240.189 113.086 240.189 110.626V109.012L232.502 110.242C229.478 110.703 227.223 111.446 225.737 112.471C224.25 113.496 223.507 114.752 223.507 116.238C223.507 117.366 223.84 118.339 224.507 119.159C225.224 119.928 226.121 120.518 227.197 120.928C228.273 121.286 229.401 121.466 230.58 121.466ZM261.069 142.606C260.659 142.606 260.301 142.452 259.993 142.145C259.686 141.837 259.532 141.479 259.532 141.069C259.532 140.864 259.532 140.659 259.532 140.454C259.583 140.3 259.686 140.095 259.839 139.839L265.835 125.617L251.076 90.7929C250.871 90.2804 250.768 89.9217 250.768 89.7167C250.819 89.2554 250.999 88.871 251.306 88.5635C251.614 88.2048 251.998 88.0254 252.459 88.0254H258.686C259.301 88.0254 259.762 88.1792 260.07 88.4867C260.377 88.7942 260.608 89.1273 260.762 89.486L270.986 114.624L281.518 89.486C281.672 89.076 281.902 88.7429 282.21 88.4867C282.517 88.1792 282.978 88.0254 283.593 88.0254H289.743C290.153 88.0254 290.512 88.1792 290.82 88.4867C291.178 88.7942 291.358 89.1529 291.358 89.5629C291.358 89.8704 291.255 90.2804 291.05 90.7929L269.295 141.145C269.09 141.555 268.834 141.889 268.526 142.145C268.219 142.452 267.757 142.606 267.142 142.606H261.069ZM322.366 128.769C317.6 128.769 313.603 128.077 310.374 126.693C307.196 125.258 304.762 123.413 303.071 121.158C301.431 118.852 300.56 116.443 300.457 113.932C300.457 113.471 300.611 113.086 300.918 112.779C301.226 112.471 301.61 112.318 302.071 112.318H308.913C309.579 112.318 310.066 112.471 310.374 112.779C310.733 113.035 311.04 113.368 311.296 113.778C311.604 114.752 312.193 115.726 313.064 116.699C313.936 117.622 315.114 118.391 316.601 119.006C318.138 119.621 320.06 119.928 322.366 119.928C326.056 119.928 328.798 119.313 330.592 118.083C332.437 116.853 333.359 115.188 333.359 113.086C333.359 111.6 332.872 110.421 331.899 109.55C330.925 108.628 329.413 107.808 327.363 107.09C325.364 106.321 322.699 105.527 319.368 104.707C315.524 103.785 312.296 102.683 309.682 101.402C307.12 100.069 305.172 98.4034 303.84 96.4047C302.558 94.406 301.918 91.8691 301.918 88.7942C301.918 85.8217 302.712 83.1823 304.301 80.8761C305.941 78.5699 308.247 76.7505 311.219 75.4181C314.243 74.0856 317.831 73.4193 321.982 73.4193C325.313 73.4193 328.26 73.8806 330.822 74.8031C333.385 75.6743 335.512 76.853 337.203 78.3393C338.894 79.7743 340.175 81.3374 341.047 83.0286C341.969 84.6686 342.456 86.2829 342.507 87.8717C342.507 88.2817 342.354 88.666 342.046 89.0248C341.79 89.3323 341.405 89.486 340.893 89.486H333.744C333.334 89.486 332.924 89.3835 332.514 89.1785C332.104 88.9735 331.771 88.5892 331.514 88.0254C331.207 86.4367 330.207 85.0786 328.516 83.9511C326.825 82.8236 324.647 82.2599 321.982 82.2599C319.214 82.2599 316.985 82.7724 315.294 83.7973C313.603 84.8223 312.757 86.4111 312.757 88.5635C312.757 89.9985 313.167 91.2029 313.987 92.1766C314.858 93.0991 316.216 93.9191 318.061 94.6366C319.958 95.3541 322.443 96.1228 325.518 96.9428C329.874 97.9166 333.436 99.0441 336.204 100.325C338.971 101.607 340.995 103.247 342.277 105.245C343.558 107.193 344.199 109.678 344.199 112.702C344.199 116.085 343.276 118.98 341.431 121.389C339.637 123.746 337.1 125.566 333.82 126.847C330.541 128.128 326.722 128.769 322.366 128.769ZM364.77 128C361.695 128 359.107 127.462 357.006 126.386C354.905 125.309 353.342 123.721 352.317 121.619C351.292 119.467 350.779 116.802 350.779 113.625V96.1741H344.706C344.194 96.1741 343.758 95.9947 343.399 95.636C343.04 95.2772 342.861 94.8416 342.861 94.3291V89.8704C342.861 89.3579 343.04 88.9223 343.399 88.5635C343.758 88.2048 344.194 88.0254 344.706 88.0254H350.779V75.2643C350.779 74.7518 350.933 74.3162 351.24 73.9574C351.599 73.5987 352.06 73.4193 352.624 73.4193H358.851C359.363 73.4193 359.799 73.5987 360.158 73.9574C360.516 74.3162 360.696 74.7518 360.696 75.2643V88.0254H370.305C370.818 88.0254 371.253 88.2048 371.612 88.5635C371.971 88.9223 372.15 89.3579 372.15 89.8704V94.3291C372.15 94.8416 371.971 95.2772 371.612 95.636C371.253 95.9947 370.818 96.1741 370.305 96.1741H360.696V112.856C360.696 114.957 361.055 116.597 361.772 117.776C362.541 118.954 363.848 119.544 365.693 119.544H370.997C371.509 119.544 371.945 119.723 372.304 120.082C372.663 120.441 372.842 120.876 372.842 121.389V126.155C372.842 126.668 372.663 127.103 372.304 127.462C371.945 127.821 371.509 128 370.997 128H364.77ZM391.961 128.769C387.861 128.769 384.402 128.051 381.583 126.616C378.816 125.181 376.689 123.157 375.203 120.543C373.768 117.929 372.948 114.88 372.743 111.395C372.692 110.473 372.666 109.345 372.666 108.013C372.666 106.68 372.692 105.553 372.743 104.63C372.948 101.094 373.793 98.0447 375.28 95.4822C376.817 92.8685 378.97 90.8441 381.737 89.4092C384.556 87.9742 387.964 87.2567 391.961 87.2567C395.959 87.2567 399.341 87.9742 402.109 89.4092C404.928 90.8441 407.08 92.8685 408.566 95.4822C410.104 98.0447 410.975 101.094 411.18 104.63C411.231 105.553 411.257 106.68 411.257 108.013C411.257 109.345 411.231 110.473 411.18 111.395C410.975 114.88 410.129 117.929 408.643 120.543C407.208 123.157 405.081 125.181 402.263 126.616C399.495 128.051 396.061 128.769 391.961 128.769ZM391.961 121.158C394.678 121.158 396.779 120.313 398.265 118.621C399.751 116.879 400.571 114.342 400.725 111.011C400.776 110.242 400.802 109.243 400.802 108.013C400.802 106.783 400.776 105.783 400.725 105.015C400.571 101.735 399.751 99.2234 398.265 97.4809C396.779 95.7385 394.678 94.8672 391.961 94.8672C389.245 94.8672 387.144 95.7385 385.658 97.4809C384.171 99.2234 383.351 101.735 383.198 105.015C383.146 105.783 383.121 106.783 383.121 108.013C383.121 109.243 383.146 110.242 383.198 111.011C383.351 114.342 384.171 116.879 385.658 118.621C387.144 120.313 389.245 121.158 391.961 121.158ZM416.238 128C415.726 128 415.29 127.821 414.931 127.462C414.572 127.103 414.393 126.668 414.393 126.155V89.9473C414.393 89.3835 414.572 88.9223 414.931 88.5635C415.29 88.2048 415.726 88.0254 416.238 88.0254H422.465C422.977 88.0254 423.413 88.2048 423.772 88.5635C424.182 88.9223 424.387 89.3835 424.387 89.9473V93.0991C425.565 91.4591 427.077 90.2035 428.922 89.3323C430.818 88.461 432.997 88.0254 435.457 88.0254H438.608C439.172 88.0254 439.608 88.2048 439.915 88.5635C440.274 88.9223 440.453 89.3579 440.453 89.8704V95.4053C440.453 95.9178 440.274 96.3535 439.915 96.7122C439.608 97.071 439.172 97.2503 438.608 97.2503H432.612C430.152 97.2503 428.23 97.9422 426.847 99.3259C425.514 100.71 424.848 102.606 424.848 105.015V126.155C424.848 126.668 424.669 127.103 424.31 127.462C423.951 127.821 423.49 128 422.926 128H416.238ZM457.762 128.769C452.073 128.769 447.563 127.129 444.232 123.849C440.901 120.569 439.107 115.905 438.851 109.858C438.8 109.345 438.774 108.705 438.774 107.936C438.774 107.116 438.8 106.475 438.851 106.014C439.056 102.17 439.927 98.8391 441.465 96.0203C443.054 93.2016 445.232 91.0491 447.999 89.5629C450.767 88.0254 454.021 87.2567 457.762 87.2567C461.913 87.2567 465.398 88.1279 468.217 89.8704C471.036 91.5616 473.163 93.9447 474.598 97.0197C476.033 100.043 476.75 103.554 476.75 107.551V109.166C476.75 109.678 476.571 110.114 476.212 110.473C475.853 110.831 475.392 111.011 474.828 111.011H449.306C449.306 111.011 449.306 111.088 449.306 111.241C449.306 111.395 449.306 111.523 449.306 111.626C449.357 113.42 449.69 115.085 450.305 116.623C450.972 118.109 451.92 119.313 453.15 120.236C454.431 121.158 455.943 121.619 457.685 121.619C459.12 121.619 460.325 121.414 461.298 121.004C462.272 120.543 463.066 120.031 463.681 119.467C464.296 118.903 464.732 118.442 464.988 118.083C465.45 117.468 465.808 117.109 466.065 117.007C466.372 116.853 466.808 116.776 467.371 116.776H473.983C474.495 116.776 474.905 116.93 475.213 117.238C475.571 117.545 475.725 117.929 475.674 118.391C475.623 119.211 475.187 120.21 474.367 121.389C473.598 122.568 472.471 123.721 470.984 124.848C469.498 125.976 467.628 126.924 465.373 127.693C463.169 128.41 460.632 128.769 457.762 128.769ZM449.306 104.553H466.295V104.323C466.295 102.324 465.962 100.582 465.296 99.0953C464.63 97.6091 463.656 96.4303 462.375 95.5591C461.093 94.6879 459.556 94.2522 457.762 94.2522C455.968 94.2522 454.431 94.6879 453.15 95.5591C451.868 96.4303 450.895 97.6091 450.228 99.0953C449.613 100.582 449.306 102.324 449.306 104.323V104.553Z" fill="black"/>
</svg>
